<svg width="108" height="125" viewBox="0 0 108 125" fill="none" xmlns="http://www.w3.org/2000/svg">
<path fill-rule="evenodd" clip-rule="evenodd" d="M54.729 123.635C54.6167 123.434 54.5582 122.44 54.5582 122.138C54.5582 119.25 59.1635 116.164 65.7649 116.164C69.1438 116.164 71.9996 117.329 73.9825 118.124C76.9707 121.393 60.5355 116.164 54.729 123.635Z" fill="#BF7104"/>
<path d="M76.9707 121.393C76.9707 124.282 73.2354 123.635 66.5119 122.888C60.6007 122.888 55.691 125.35 54.729 123.635C60.5355 116.164 76.9707 121.393 73.9825 118.124C75.8735 118.882 76.9707 119.984 76.9707 121.393Z" fill="#F5A21C"/>
<path fill-rule="evenodd" clip-rule="evenodd" d="M42.4351 123.635C42.5474 123.434 42.6059 122.44 42.6059 122.138C42.6059 119.25 38.0006 116.164 31.3992 116.164C28.0202 116.164 25.1645 117.329 23.1816 118.124C20.1934 121.393 36.6286 116.164 42.4351 123.635Z" fill="#BF7104"/>
<path d="M20.1934 121.393C20.1934 124.282 23.9286 123.635 30.6521 122.888C36.5634 122.888 41.4731 125.35 42.4351 123.635C36.6286 116.164 20.1934 121.393 23.1816 118.124C21.2905 118.882 20.1934 119.984 20.1934 121.393Z" fill="#F5A21C"/>
<path d="M0.942783 64.9941C-1.29938 104.588 18.4572 119.529 46.5132 119.529C67.8426 121.798 90.4259 104.921 99.0827 88.215C102.825 86.4885 106.851 81.1532 106.851 70.9239C106.851 69.4422 106.446 68.0989 106.027 66.7107C105.782 65.9014 105.533 65.0768 105.357 64.2004C104.61 55.9828 102.369 53.7416 97.8868 49.2593C97.1921 48.437 96.8953 47.5424 96.6037 46.6633C96.0705 45.0564 95.5547 43.5015 92.6574 42.5357C89.0112 42.5357 88.8835 43.573 88.4773 46.8695C88.223 48.9332 87.8597 51.8823 86.4558 56.0166C79.9818 50.5445 77.9909 44.8414 76.0283 39.2193C72.7892 29.9401 69.6271 20.8817 46.5132 13.4473C24.1015 13.4473 5.42512 31.3774 0.942783 64.9941Z" fill="white"/>
<path d="M0.942783 65.3706C-1.29938 104.965 18.4572 119.906 46.5132 119.906C67.8426 122.175 90.4259 105.297 99.0827 88.5914C102.825 86.865 106.851 81.5296 106.851 71.3003C106.851 69.8187 106.557 68.467 106.138 67.0789C105.974 66.5351 105.754 65.7928 105.701 65.6063C103.863 71.7176 100.455 72.9745 99.3809 75.4529C96.8981 81.1834 99.3809 80.6823 93.4001 87.7234C76.6626 89.8032 73.4801 73.1589 73.981 64.5768C71.2418 69.4004 69.3493 82.7929 83.6927 97.7739C53.0953 123.301 5.37711 114.715 0.942783 65.3706Z" fill="#F1F1F2"/>
<circle cx="54.5565" cy="45.9882" r="5.97645" fill="black"/>
<circle cx="18.6991" cy="45.9882" r="5.97645" fill="black"/>
<ellipse cx="59.0408" cy="57.9413" rx="8.96467" ry="5.97645" fill="#FFA7A6"/>
<path d="M35.1346 47.4824C30.1835 47.4824 26.1699 50.4926 26.1699 54.2059C29.1581 48.2295 39.6169 46.7354 44.0993 54.2059C44.0993 50.4926 40.0856 47.4824 35.1346 47.4824Z" fill="#FFD087"/>
<path fill-rule="evenodd" clip-rule="evenodd" d="M26.1699 54.2059C35.1346 59.4353 35.1346 59.4353 44.0993 54.2059C39.6169 46.7354 29.1581 48.2295 26.1699 54.2059Z" fill="#F5A21C"/>
<path d="M35.1346 60.9294C40.0856 60.9294 44.0993 57.9192 44.0993 54.2059C35.1346 59.4353 35.1346 59.4353 26.1699 54.2059C26.1699 57.9192 30.1835 60.9294 35.1346 60.9294Z" fill="#BF7104"/>
<ellipse cx="14.2166" cy="57.9413" rx="8.96467" ry="5.97645" fill="#FFA7A6"/>
<circle cx="53.0644" cy="44.4941" r="1.49411" fill="white"/>
<circle cx="17.205" cy="44.4941" r="1.49411" fill="white"/>
<path d="M62.7757 20.9176C64.5188 17.929 64.2709 10.8775 54.558 11.6243C56.7992 -1.8706 33.1831 -6.35079 34.6772 13.2265C30.3446 12.2417 23.5678 14.0272 27.2059 20.6962C27.16 18.9777 25.4229 13.2265 35.8816 13.8647C38.1228 -1.1235 52.3169 -1.87056 54.558 11.6243C61.2815 13.1184 63.7714 15.5795 62.7757 20.9176Z" fill="#FFA7A6"/>
<path d="M33.1831 25.9263C36.4203 20.1988 48.4322 11.9529 62.7757 20.9176C63.7714 15.5795 61.2815 13.1184 54.558 11.6243C52.3169 -1.87056 38.1228 -1.1235 35.8816 13.8647C25.4229 13.2265 27.16 18.9777 27.2059 20.6962C28.168 22.4598 30.6832 23.1763 33.1831 25.9263Z" fill="#F0182D"/>
<path d="M75.0366 62.752C73.0445 69.9735 72.4967 85.9107 86.2425 91.8871C89.8502 90.0833 92.4887 85.6898 94.0182 81.0011M88.4839 66.4872C91.6923 66.3638 93.8625 67.1832 95.2074 68.6007M95.2074 68.6007C95.5605 70.0436 95.6433 71.9067 95.4698 73.9578M95.2074 68.6007C95.805 72.6821 91.4721 72.8766 89.2309 72.4637M89.978 83.6695C91.4721 83.6695 93.5914 82.4523 94.0182 81.0011M94.0182 81.0011C94.7917 78.6299 95.2816 76.1832 95.4698 73.9578M89.978 78.4401C91.149 78.9382 93.8869 78.7389 95.4698 73.9578" stroke="#A6A6A6" stroke-width="1.49411" stroke-linecap="round" stroke-linejoin="round"/>
<path d="M85.1855 55.2817C85.9326 56.0288 86.6797 56.7758 86.6797 56.7758M89.6679 59.7641C87.4267 59.017 88.4895 58.1689 86.6797 56.7758M86.6797 56.7758C89.6679 47.8126 87.4275 41.8337 91.9098 42.5804C95.6451 43.2027 97.8863 47.8093 97.1392 60.5092M96.7031 48.9215C99.3804 51.5439 103.863 54.5321 105.357 65.7379M102.369 74.7031C103.369 71.3268 105.237 68.3491 105.357 65.7379M105.357 65.7379C108.056 70.4693 108.345 80.679 98.6333 88.1496M98.6333 88.1496C99.1314 87.1535 98.4839 85.7595 97.8863 85.1619M98.6333 88.1496C98.8824 89.8927 97.1392 94.2759 94.151 94.8736" stroke="#A6A6A6" stroke-width="1.49411" stroke-linecap="round" stroke-linejoin="round"/>
</svg>
