<svg width="108" height="125" viewBox="0 0 108 125" fill="none" xmlns="http://www.w3.org/2000/svg">
<path fill-rule="evenodd" clip-rule="evenodd" d="M54.729 123.635C54.6167 123.434 54.5582 122.44 54.5582 122.138C54.5582 119.25 59.1635 116.164 65.7649 116.164C69.1438 116.164 71.9996 117.329 73.9825 118.124C76.9707 121.393 60.5355 116.164 54.729 123.635Z" fill="#BF7104"/>
<path d="M76.9707 121.393C76.9707 124.282 73.2354 123.635 66.5119 122.888C60.6007 122.888 55.691 125.35 54.729 123.635C60.5355 116.164 76.9707 121.393 73.9825 118.124C75.8735 118.882 76.9707 119.984 76.9707 121.393Z" fill="#F5A21C"/>
<path fill-rule="evenodd" clip-rule="evenodd" d="M42.4351 123.635C42.5474 123.434 42.6059 122.44 42.6059 122.138C42.6059 119.25 38.0006 116.164 31.3992 116.164C28.0202 116.164 25.1645 117.329 23.1816 118.124C20.1934 121.393 36.6286 116.164 42.4351 123.635Z" fill="#BF7104"/>
<path d="M20.1934 121.393C20.1934 124.282 23.9286 123.635 30.6521 122.888C36.5634 122.888 41.4731 125.35 42.4351 123.635C36.6286 116.164 20.1934 121.393 23.1816 118.124C21.2905 118.882 20.1934 119.984 20.1934 121.393Z" fill="#F5A21C"/>
<mask id="path-3-inside-1_290_308" fill="white">
<path d="M0.942783 64.9941C-1.29938 104.588 18.4572 119.529 46.5132 119.529C67.8426 121.798 90.4259 104.921 99.0827 88.215C102.825 86.4885 106.851 81.1532 106.851 70.9239C106.851 69.4423 106.446 68.0989 106.027 66.7107C105.782 65.9014 105.533 65.0768 105.357 64.2004C104.61 55.9828 102.369 53.7416 97.8868 49.2593C97.1921 48.437 96.8953 47.5424 96.6037 46.6633C96.0706 45.0564 95.5547 43.5015 92.6574 42.5357C89.0112 42.5357 88.8835 43.573 88.4773 46.8695C88.223 48.9332 87.8597 51.8823 86.4558 56.0166C79.9818 50.5445 77.9909 44.8414 76.0283 39.2193C72.7892 29.9401 69.6271 20.8817 46.5132 13.4473C24.1015 13.4473 5.42512 31.3774 0.942783 64.9941Z"/>
<path d="M0.942783 65.3706C-1.29938 104.965 18.4572 119.906 46.5132 119.906C67.8426 122.175 90.4259 105.297 99.0827 88.5914C102.825 86.865 106.851 81.5296 106.851 71.3003C106.851 69.8187 106.557 68.467 106.138 67.0789C105.974 66.5351 105.754 65.7928 105.701 65.6063C103.863 71.7176 100.455 72.9745 99.3809 75.4529C96.8981 81.1834 99.3809 80.6823 93.4001 87.7234C76.6626 89.8032 73.4801 73.1589 73.981 64.5768C71.2418 69.4004 69.3493 82.7929 83.6927 97.7739C53.0953 123.301 5.37711 114.715 0.942783 65.3706Z"/>
</mask>
<path d="M0.942783 64.9941C-1.29938 104.588 18.4572 119.529 46.5132 119.529C67.8426 121.798 90.4259 104.921 99.0827 88.215C102.825 86.4885 106.851 81.1532 106.851 70.9239C106.851 69.4423 106.446 68.0989 106.027 66.7107C105.782 65.9014 105.533 65.0768 105.357 64.2004C104.61 55.9828 102.369 53.7416 97.8868 49.2593C97.1921 48.437 96.8953 47.5424 96.6037 46.6633C96.0706 45.0564 95.5547 43.5015 92.6574 42.5357C89.0112 42.5357 88.8835 43.573 88.4773 46.8695C88.223 48.9332 87.8597 51.8823 86.4558 56.0166C79.9818 50.5445 77.9909 44.8414 76.0283 39.2193C72.7892 29.9401 69.6271 20.8817 46.5132 13.4473C24.1015 13.4473 5.42512 31.3774 0.942783 64.9941Z" fill="white"/>
<path d="M0.942783 65.3706C-1.29938 104.965 18.4572 119.906 46.5132 119.906C67.8426 122.175 90.4259 105.297 99.0827 88.5914C102.825 86.865 106.851 81.5296 106.851 71.3003C106.851 69.8187 106.557 68.467 106.138 67.0789C105.974 66.5351 105.754 65.7928 105.701 65.6063C103.863 71.7176 100.455 72.9745 99.3809 75.4529C96.8981 81.1834 99.3809 80.6823 93.4001 87.7234C76.6626 89.8032 73.4801 73.1589 73.981 64.5768C71.2418 69.4004 69.3493 82.7929 83.6927 97.7739C53.0953 123.301 5.37711 114.715 0.942783 65.3706Z" fill="#F1F1F2"/>
<path d="M46.5132 119.529L46.619 118.535L46.5662 118.529H46.5132V119.529ZM0.942783 64.9941L-0.0484442 64.8619L-0.0534681 64.8996L-0.0556172 64.9376L0.942783 64.9941ZM46.5132 13.4473L46.8194 12.4953L46.6701 12.4473H46.5132V13.4473ZM97.8868 49.2593L97.1229 49.9046L97.15 49.9367L97.1797 49.9664L97.8868 49.2593ZM105.357 64.2004L104.361 64.2909L104.366 64.3445L104.377 64.3972L105.357 64.2004ZM76.0283 39.2193L76.9725 38.8897L76.9725 38.8897L76.0283 39.2193ZM99.0827 88.215L98.6639 87.3069L98.3526 87.4505L98.1949 87.7549L99.0827 88.215ZM86.4558 56.0166L85.8103 56.7803L86.931 57.7275L87.4027 56.3381L86.4558 56.0166ZM88.4773 46.8695L89.4698 46.9918L89.4698 46.9918L88.4773 46.8695ZM92.6574 42.5357L92.9736 41.5871L92.8197 41.5357H92.6574V42.5357ZM96.6037 46.6633L97.5528 46.3484L97.5528 46.3484L96.6037 46.6633ZM106.027 66.7107L105.069 66.9998L105.069 66.9998L106.027 66.7107ZM46.5132 119.906L46.619 118.911L46.5662 118.906H46.5132V119.906ZM0.942783 65.3706L1.93877 65.2811L-0.0556172 65.314L0.942783 65.3706ZM83.6927 97.7739L84.3333 98.5417L85.1556 97.8558L84.415 97.0823L83.6927 97.7739ZM73.981 64.5768L74.9793 64.6351L73.1114 64.083L73.981 64.5768ZM93.4001 87.7234L93.5234 88.7158L93.9101 88.6678L94.1623 88.3708L93.4001 87.7234ZM99.0827 88.5914L98.6639 87.6834L98.3526 87.8269L98.1949 88.1313L99.0827 88.5914ZM105.701 65.6063L106.663 65.3334L105.729 62.0412L104.744 65.3183L105.701 65.6063ZM106.138 67.0789L105.18 67.3674L105.18 67.3679L106.138 67.0789ZM99.3809 75.4529L100.298 75.8504L100.298 75.8504L99.3809 75.4529ZM46.5132 118.529C32.6496 118.529 21.0068 114.839 13.0947 106.424C5.18284 98.01 0.829128 84.6883 1.94118 65.0507L-0.0556172 64.9376C-1.18572 84.8939 3.21779 98.8397 11.6377 107.794C20.0573 116.749 32.3209 120.529 46.5132 120.529V118.529ZM1.93401 65.1263C6.37622 31.8105 24.7779 14.4473 46.5132 14.4473V12.4473C23.4252 12.4473 4.47402 30.9443 -0.0484442 64.8619L1.93401 65.1263ZM97.1797 49.9664C99.4426 52.2293 101.018 53.8138 102.152 55.8211C103.272 57.802 103.995 60.2632 104.361 64.2909L106.353 64.1098C105.972 59.9199 105.202 57.1517 103.893 54.837C102.6 52.5488 100.813 50.7715 98.5939 48.5521L97.1797 49.9664ZM76.9725 38.8897C75.355 34.2563 73.6987 29.4827 69.4531 24.9573C65.211 20.4357 58.4683 16.2421 46.8194 12.4953L46.207 14.3992C57.6719 18.0869 64.0672 22.1397 67.9945 26.3257C71.9182 30.5079 73.4625 34.9031 75.0842 39.5488L76.9725 38.8897ZM105.851 70.9239C105.851 80.9131 101.934 85.7986 98.6639 87.3069L99.5016 89.123C103.717 87.1784 107.851 81.3932 107.851 70.9239H105.851ZM98.1949 87.7549C93.9568 95.9333 86.276 104.204 77.0104 110.146C67.7437 116.088 56.9917 119.638 46.619 118.535L46.4074 120.524C57.3641 121.689 68.5685 117.935 78.09 111.829C87.6125 105.723 95.5518 97.2023 99.9706 88.6751L98.1949 87.7549ZM75.0842 39.5488C77.0531 45.1889 79.1149 51.1211 85.8103 56.7803L87.1014 55.2528C80.8487 49.9679 78.9288 44.4939 76.9725 38.8897L75.0842 39.5488ZM87.4027 56.3381C88.8397 52.1063 89.2129 49.077 89.4698 46.9918L87.4848 46.7472C87.2332 48.7894 86.8797 51.6582 85.5089 55.695L87.4027 56.3381ZM89.4698 46.9918C89.5734 46.1507 89.6518 45.5231 89.7647 45.021C89.8768 44.5224 90.0016 44.2552 90.1324 44.0921C90.3499 43.821 90.8345 43.5357 92.6574 43.5357V41.5357C90.8341 41.5357 89.4318 41.7691 88.5723 42.8407C88.1646 43.349 87.9534 43.9592 87.8134 44.5823C87.6741 45.2018 87.5843 45.94 87.4848 46.7472L89.4698 46.9918ZM92.3412 43.4844C93.6449 43.919 94.3179 44.4511 94.7306 44.9767C95.1647 45.5296 95.3812 46.1543 95.6545 46.9782L97.5528 46.3484C97.293 45.5654 96.985 44.6093 96.3036 43.7415C95.6008 42.8465 94.5672 42.1183 92.9736 41.5871L92.3412 43.4844ZM95.6545 46.9782C95.9414 47.843 96.2875 48.9159 97.1229 49.9046L98.6507 48.6139C98.0966 47.9581 97.8491 47.2417 97.5528 46.3484L95.6545 46.9782ZM104.377 64.3972C104.564 65.3275 104.827 66.1966 105.069 66.9998L106.984 66.4217C106.738 65.6062 106.503 64.826 106.338 64.0035L104.377 64.3972ZM105.069 66.9998C105.495 68.4083 105.851 69.613 105.851 70.9239H107.851C107.851 69.2715 107.397 67.7895 106.984 66.4217L105.069 66.9998ZM46.5132 118.906C32.6496 118.906 21.0068 115.215 13.0947 106.801C5.18284 98.3864 0.829128 85.0647 1.94118 65.4271L-0.0556172 65.314C-1.18572 85.2704 3.21779 99.2162 11.6377 108.171C20.0573 117.125 32.3209 120.906 46.5132 120.906V118.906ZM-0.0532032 65.4601C2.19591 90.4876 15.4699 105.345 32.2069 110.603C48.8802 115.841 68.8073 111.495 84.3333 98.5417L83.0521 97.006C67.9807 109.58 48.75 113.704 32.8063 108.695C16.9262 103.706 4.12399 89.5976 1.93877 65.2811L-0.0532032 65.4601ZM73.1114 64.083C70.12 69.3508 68.3718 83.218 82.9704 98.4654L84.415 97.0823C70.3267 82.3678 72.3636 69.4501 74.8506 65.0706L73.1114 64.083ZM72.9827 64.5185C72.7256 68.9237 73.4035 75.4432 76.3566 80.6422C77.8421 83.2575 79.9196 85.5654 82.7659 87.0745C85.6174 88.5865 89.1664 89.2572 93.5234 88.7158L93.2768 86.7311C89.2651 87.2296 86.1397 86.5997 83.7027 85.3075C81.2605 84.0126 79.4354 82.013 78.0957 79.6544C75.3983 74.9057 74.7355 68.8121 74.9793 64.6351L72.9827 64.5185ZM105.851 71.3003C105.851 81.2896 101.934 86.175 98.6639 87.6834L99.5016 89.4994C103.717 87.5549 107.851 81.7696 107.851 71.3003H105.851ZM98.1949 88.1313C93.9568 96.3097 86.276 104.581 77.0104 110.522C67.7437 116.465 56.9917 120.015 46.619 118.911L46.4074 120.9C57.3641 122.066 68.5685 118.312 78.09 112.206C87.6125 106.099 95.5518 97.5787 99.9706 89.0515L98.1949 88.1313ZM104.739 65.8793C104.795 66.0743 105.016 66.8235 105.18 67.3674L107.095 66.7904C106.931 66.2467 106.714 65.5113 106.663 65.3334L104.739 65.8793ZM105.18 67.3679C105.585 68.7088 105.851 69.9555 105.851 71.3003H107.851C107.851 69.6819 107.528 68.2253 107.095 66.7898L105.18 67.3679ZM98.4633 75.0553C97.202 77.9665 97.1102 79.5786 96.7437 80.8118C96.3669 82.0797 95.6025 83.5859 92.638 87.0761L94.1623 88.3708C97.1785 84.8198 98.1631 83.056 98.6608 81.3816C99.1688 79.6723 99.077 78.6698 100.298 75.8504L98.4633 75.0553ZM100.298 75.8504C100.504 75.3767 100.835 74.9276 101.31 74.3924C101.548 74.125 101.807 73.8523 102.096 73.5452C102.381 73.2423 102.69 72.9125 103.007 72.551C104.294 71.0813 105.69 69.1164 106.659 65.8944L104.744 65.3183C103.875 68.2076 102.647 69.9268 101.502 71.2329C101.211 71.5654 100.924 71.8728 100.64 72.1741C100.36 72.4711 100.077 72.7695 99.8155 73.0639C99.2925 73.6524 98.795 74.2899 98.4633 75.0553L100.298 75.8504Z" fill="#F1F1F2" mask="url(#path-3-inside-1_290_308)"/>
<circle cx="54.5565" cy="45.9882" r="5.97645" fill="black"/>
<circle cx="18.6991" cy="45.9882" r="5.97645" fill="black"/>
<ellipse cx="59.0408" cy="57.9413" rx="8.96467" ry="5.97645" fill="#FFA7A6"/>
<path d="M35.1346 47.4824C30.1835 47.4824 26.1699 50.4926 26.1699 54.2059C29.1581 48.2295 39.6169 46.7354 44.0993 54.2059C44.0993 50.4926 40.0856 47.4824 35.1346 47.4824Z" fill="#FFD087"/>
<path fill-rule="evenodd" clip-rule="evenodd" d="M26.1699 54.2059C35.1346 59.4353 35.1346 59.4353 44.0993 54.2059C39.6169 46.7354 29.1581 48.2295 26.1699 54.2059Z" fill="#F5A21C"/>
<path d="M35.1346 60.9294C40.0856 60.9294 44.0993 57.9192 44.0993 54.2059C35.1346 59.4353 35.1346 59.4353 26.1699 54.2059C26.1699 57.9192 30.1835 60.9294 35.1346 60.9294Z" fill="#BF7104"/>
<ellipse cx="14.2166" cy="57.9413" rx="8.96467" ry="5.97645" fill="#FFA7A6"/>
<circle cx="53.0644" cy="44.4941" r="1.49411" fill="white"/>
<circle cx="17.205" cy="44.4941" r="1.49411" fill="white"/>
<path d="M62.7757 20.9176C64.5188 17.929 64.2709 10.8775 54.558 11.6243C56.7992 -1.8706 33.1831 -6.35079 34.6772 13.2265C30.3446 12.2417 23.5678 14.0272 27.2059 20.6962C27.16 18.9777 25.4229 13.2265 35.8816 13.8647C38.1228 -1.1235 52.3169 -1.87056 54.558 11.6243C61.2815 13.1184 63.7714 15.5795 62.7757 20.9176Z" fill="#FFA7A6"/>
<path d="M33.1831 25.9263C36.4203 20.1988 48.4322 11.9529 62.7757 20.9176C63.7714 15.5795 61.2815 13.1184 54.558 11.6243C52.3169 -1.87056 38.1228 -1.1235 35.8816 13.8647C25.4229 13.2265 27.16 18.9777 27.2059 20.6962C28.168 22.4598 30.6832 23.1763 33.1831 25.9263Z" fill="#F0182D"/>
<path d="M75.0366 62.752C73.0445 69.9735 72.4967 85.9107 86.2425 91.8871C89.8502 90.0833 92.4887 85.6898 94.0182 81.0011M88.4839 66.4872C91.6923 66.3638 93.8625 67.1832 95.2074 68.6007M95.2074 68.6007C95.5605 70.0436 95.6433 71.9067 95.4698 73.9578M95.2074 68.6007C95.805 72.6821 91.4721 72.8766 89.2309 72.4637M89.978 83.6695C91.4721 83.6695 93.5914 82.4523 94.0182 81.0011M94.0182 81.0011C94.7917 78.6299 95.2816 76.1832 95.4698 73.9578M89.978 78.4401C91.149 78.9382 93.8869 78.7389 95.4698 73.9578" stroke="#A6A6A6" stroke-width="1.49411" stroke-linecap="round" stroke-linejoin="round"/>
<path d="M85.1855 55.2817C85.9326 56.0288 86.6797 56.7758 86.6797 56.7758M89.6679 59.7641C87.4267 59.017 88.4895 58.1689 86.6797 56.7758M86.6797 56.7758C89.6679 47.8126 87.4275 41.8337 91.9098 42.5804C95.6451 43.2027 97.8863 47.8093 97.1392 60.5092M96.7031 48.9215C99.3804 51.5439 103.863 54.5321 105.357 65.7379M102.369 74.7031C103.369 71.3268 105.237 68.3491 105.357 65.7379M105.357 65.7379C108.056 70.4693 108.345 80.679 98.6333 88.1496M98.6333 88.1496C99.1314 87.1535 98.4839 85.7595 97.8863 85.1619M98.6333 88.1496C98.8824 89.8927 97.1392 94.2759 94.151 94.8736" stroke="#A6A6A6" stroke-width="1.49411" stroke-linecap="round" stroke-linejoin="round"/>
</svg>
