<svg width="140" height="70" viewBox="0 0 140 70" fill="none" xmlns="http://www.w3.org/2000/svg">
<g filter="url(#filter0_d_290_309)">
<path fill-rule="evenodd" clip-rule="evenodd" d="M38.1176 32.0483C39.4302 39.1238 43.1759 44.948 47.9432 48.2677C63.8837 48.2677 72.5569 36.5302 58.6295 7.25053C56.262 6.42581 53.7659 6.18655 51.2724 6.64915C41.7331 8.41887 35.8435 19.7905 38.1176 32.0483Z" fill="white"/>
<path d="M59.5075 51.0388C69.0468 49.2691 74.9364 37.8975 72.6624 25.6396C70.9827 16.5859 65.3192 9.58091 58.6295 7.25053C72.5569 36.5302 63.8837 48.2677 47.9432 48.2677C51.4349 50.6991 55.4745 51.787 59.5075 51.0388Z" fill="#F1F1F2"/>
<path d="M48.1007 47.7673C43.5141 44.5162 39.8888 38.8545 38.6092 31.9571C36.3629 19.8489 42.2034 8.84015 51.3636 7.14076C53.6969 6.70789 56.0359 6.9119 58.2683 7.65568C65.1387 22.1642 66.3546 32.198 64.0174 38.5667C61.713 44.8463 55.8765 47.729 48.1007 47.7673ZM64.9562 38.9112C67.3836 32.2965 66.1283 22.2455 59.6159 8.17564C65.6011 10.805 70.6153 17.3465 72.1708 25.7308C74.4171 37.839 68.5765 48.8478 59.4163 50.5472C56.0474 51.1722 52.6595 50.4695 49.5999 48.7243C56.8989 48.3346 62.611 45.302 64.9562 38.9112Z" stroke="#F1F1F2"/>
</g>
<g filter="url(#filter1_d_290_309)">
<path fill-rule="evenodd" clip-rule="evenodd" d="M67.9986 22.4372C66.6863 29.5127 68.0939 36.2929 71.3533 41.1015C96.0397 48.5365 106.573 17.3186 96.0397 6.64585C94.1255 5.02688 91.8813 3.90832 89.3878 3.44583C79.8484 1.67651 70.2722 10.1792 67.9986 22.4372Z" fill="white"/>
<path d="M81.1545 47.8358C90.6939 49.6051 100.27 41.1024 102.544 28.8445C104.223 19.7906 101.449 11.2205 96.0397 6.64585C106.573 17.3186 96.0397 48.5365 71.3533 41.1015C73.7407 44.6235 77.1214 47.0878 81.1545 47.8358Z" fill="#F1F1F2"/>
<path d="M71.6684 40.6736C68.5612 35.9948 67.2125 29.4173 68.4902 22.5284C70.736 10.4201 80.1363 2.23844 89.2966 3.93744C91.691 4.38156 93.8506 5.45392 95.6996 7.01305C98.2074 9.56441 99.4924 13.3723 99.5981 17.5902C99.7039 21.8123 98.6249 26.3973 96.4634 30.4278C94.3026 34.457 91.0723 37.9102 86.8912 39.904C82.7573 41.8753 77.657 42.4381 71.6684 40.6736ZM100.598 17.5651C100.549 15.6186 100.258 13.7321 99.7111 11.9923C102.212 16.5371 103.21 22.5122 102.052 28.7533C99.8063 40.8616 90.4059 49.0432 81.2457 47.3442C77.8125 46.7074 74.8556 44.7767 72.6095 41.9653C78.2976 43.3791 83.2375 42.7542 87.3217 40.8066C91.7296 38.7046 95.103 35.0804 97.3447 30.9004C99.5857 26.7216 100.708 21.9657 100.598 17.5651Z" stroke="#F1F1F2"/>
</g>
<path d="M68.0687 38.8808L43.5705 29.6438L53.6108 38.4792L44.7754 34.8647C41.2412 30.688 36.6093 29.3761 34.7351 29.2422C38.5906 32.4551 39.2867 34.0615 39.1528 34.4631L23.4901 30.0454L27.1046 32.8567C12.0041 29.6438 12.5128 32.3212 14.6547 34.0615C0.196782 36.6318 12.3789 39.1485 20.2772 40.0856C10.9599 41.3708 5.95318 44.1017 4.61448 45.3065C6.86349 44.3427 7.96122 45.1727 8.22896 45.7082C6.30124 47.3146 2.60644 50.6613 1 52.1339C17.7069 51.4913 13.0483 54.0081 8.63057 55.3468C12.1647 59.5235 19.474 59.229 22.6869 58.5596L18.6708 65.387L35.94 60.5677V64.5838C36.9038 62.9773 40.8931 62.0402 42.7673 61.7725L40.3577 65.387C49.0324 61.8528 51.7366 61.7725 52.0043 62.1741C46.8637 67.636 47.9882 68.466 49.1931 68.1982C63.9723 61.1299 69.0058 60.7015 69.6751 61.3709C65.8197 71.9734 71.5493 66.8596 74.896 62.9773C75.5386 64.5838 77.8412 65.5209 78.9121 65.7886C77.9482 57.7564 85.7395 61.3709 89.7555 64.1822L90.5588 58.5596L97.3861 64.1822L96.5829 60.1661L109.033 64.1822C105.177 54.8648 114.388 59.7645 119.475 63.3789L116.663 56.5516L127.105 61.3709L123.089 55.3468L133.933 58.5596L128.31 50.9291L138.752 53.7403L131.121 44.9049C130.8 43.2985 135.539 42.6291 137.949 42.4953C135.7 39.2824 128.444 38.2115 125.097 38.0776L135.539 33.6599C133.933 32.3747 127.373 33.9276 124.294 34.8647L127.105 30.0454C124.856 29.0815 115.191 32.0534 110.639 33.6599L112.647 30.0454C111.362 29.0815 103.544 33.6599 99.7958 36.0695L102.205 32.4551C100.92 30.5273 93.9055 34.0615 90.5588 36.0695L91.7636 33.6599C87.5869 37.5153 82.2589 38.2115 80.1169 38.0776L83.3298 33.6599L68.0687 38.8808Z" fill="#FFC146"/>
<path d="M14.6547 34.0615C0.196782 36.6318 12.3789 39.1485 20.2772 40.0856C10.9599 41.3708 5.95318 44.1017 4.61448 45.3065C6.86349 44.3427 7.96122 45.1727 8.22896 45.7082C6.30124 47.3146 2.60644 50.6613 1 52.1339C17.7069 51.4913 13.0483 54.0081 8.63057 55.3468C12.1647 59.5235 19.474 59.229 22.6869 58.5596L18.6708 65.387L35.94 60.5677V64.5838C36.9038 62.9773 40.8931 62.0402 42.7673 61.7725L40.3577 65.387C49.0324 61.8528 51.7366 61.7725 52.0043 62.1741C46.8637 67.636 47.9882 68.466 49.1931 68.1982C63.9723 61.1299 69.0058 60.7015 69.6751 61.3709C65.8197 71.9734 71.5493 66.8596 74.896 62.9773C75.5386 64.5838 77.8412 65.5209 78.9121 65.7886C77.9483 57.7564 85.7395 61.3709 89.7556 64.1822L90.5588 58.5596L97.3861 64.1822L96.5829 60.1661L109.033 64.1822C105.177 54.8648 114.388 59.7645 119.475 63.3789L116.663 56.5516L127.105 61.3709L123.089 55.3468L133.933 58.5596L128.31 50.9291L138.752 53.7403L131.121 44.9049C130.8 43.2985 135.539 42.6291 137.949 42.4953C135.7 39.2824 128.444 38.2115 125.097 38.0776L135.539 33.6599C133.933 32.3747 127.373 33.9276 124.294 34.8647L127.105 30.0454C124.856 29.0815 115.191 32.0534 110.639 33.6599L112.647 30.0454C111.362 29.0815 103.544 33.6599 99.7958 36.0695L102.205 32.4551C100.92 30.5273 93.9055 34.0615 90.5588 36.0695L91.7636 33.6599C87.5869 37.5153 82.2589 38.2115 80.1169 38.0776L83.3298 33.6599L68.0687 38.8808L43.5705 29.6438L53.6108 38.4792L44.7754 34.8647M14.6547 34.0615C12.5128 32.3212 12.0041 29.6438 27.1046 32.8567L23.4901 30.0454L39.1528 34.4631C39.2867 34.0615 38.5906 32.4551 34.7351 29.2422C36.6093 29.3761 41.2412 30.688 44.7754 34.8647M14.6547 34.0615C15.7257 34.7308 18.1889 36.1499 19.474 36.4711M44.7754 34.8647L42.3657 34.4631M114.254 36.4711C116.529 36.0695 121.643 36.5515 123.892 41.6921L115.057 40.4872L121.081 46.5114L115.459 44.1017M107.025 45.3065C108.497 47.4485 111.362 52.2945 111.041 54.5435L105.017 47.3146L107.025 53.3387C105.82 52.1339 103.41 49.4833 103.41 48.5194M92.1652 46.1098C95.6458 50.7952 100.358 58.0777 91.362 49.7242C92.2991 53.8742 92.8078 59.8448 87.3459 50.5275M70.0767 51.7323C68.6042 55.3468 67.0245 60.648 72.4864 52.9371C72.0848 54.4097 71.6028 57.5155 72.888 58.158M45.177 50.1258L40.3577 55.3468L48.7915 50.9291C47.3189 52.6694 45.177 55.8287 48.3898 54.5435M27.9078 48.1178L21.8837 53.3387L32.3255 50.5275C29.782 52.8032 25.6588 56.9532 29.5142 55.3468M25.8997 43.7001C23.3562 43.834 17.7069 44.7443 15.4579 47.3146L25.0965 46.5114M27.9078 36.4711C22.8207 37.2744 16.3415 38.8808 31.1207 38.8808" stroke="#D1A019" stroke-width="1.60644" stroke-linejoin="round" style="mix-blend-mode:multiply"/>
<defs>
<filter id="filter0_d_290_309" x="33.6289" y="6.41602" width="43.5215" height="52.8555" filterUnits="userSpaceOnUse" color-interpolation-filters="sRGB">
<feFlood flood-opacity="0" result="BackgroundImageFix"/>
<feColorMatrix in="SourceAlpha" type="matrix" values="0 0 0 0 0 0 0 0 0 0 0 0 0 0 0 0 0 0 127 0" result="hardAlpha"/>
<feOffset dy="4"/>
<feGaussianBlur stdDeviation="2"/>
<feComposite in2="hardAlpha" operator="out"/>
<feColorMatrix type="matrix" values="0 0 0 0 0 0 0 0 0 0 0 0 0 0 0 0 0 0 0.25 0"/>
<feBlend mode="normal" in2="BackgroundImageFix" result="effect1_dropShadow_290_309"/>
<feBlend mode="normal" in="SourceGraphic" in2="effect1_dropShadow_290_309" result="shape"/>
</filter>
<filter id="filter1_d_290_309" x="65.3772" y="3.21289" width="39.7886" height="49.1246" filterUnits="userSpaceOnUse" color-interpolation-filters="sRGB">
<feFlood flood-opacity="0" result="BackgroundImageFix"/>
<feColorMatrix in="SourceAlpha" type="matrix" values="0 0 0 0 0 0 0 0 0 0 0 0 0 0 0 0 0 0 127 0" result="hardAlpha"/>
<feOffset dy="2.13455"/>
<feGaussianBlur stdDeviation="1.06728"/>
<feComposite in2="hardAlpha" operator="out"/>
<feColorMatrix type="matrix" values="0 0 0 0 0 0 0 0 0 0 0 0 0 0 0 0 0 0 0.25 0"/>
<feBlend mode="normal" in2="BackgroundImageFix" result="effect1_dropShadow_290_309"/>
<feBlend mode="normal" in="SourceGraphic" in2="effect1_dropShadow_290_309" result="shape"/>
</filter>
</defs>
</svg>
