<svg width="127" height="163" viewBox="0 0 127 163" fill="none" xmlns="http://www.w3.org/2000/svg">
<path d="M80.2507 35.2428C80.2507 35.744 79.8444 36.1503 79.3433 36.1503C78.8421 36.1503 78.4358 35.744 78.4358 35.2428C78.4358 34.7417 78.8421 34.3354 79.3433 34.3354C79.8444 34.3354 80.2507 34.7417 80.2507 35.2428Z" fill="white"/>
<path d="M90.0268 66.484C91.7907 68.6263 94.4229 69.373 95.906 68.1518C97.3891 66.9307 97.1614 64.2041 95.3976 62.0618C93.6337 59.9196 91.0015 59.1729 89.5184 60.394C88.0353 61.6152 88.2629 64.3418 90.0268 66.484Z" fill="black"/>
<path d="M108.47 131.928C107.272 132.061 106.18 132.607 105.234 133.479C102.535 135.964 101.027 141.089 101.659 146.786C102.309 152.644 105.436 157.137 108.335 159.135C109.32 159.814 110.585 160.328 112.005 160.564C114.445 160.969 116.715 160.449 118.035 159.344C121.204 157.413 123.894 152.965 124.821 147.476C126.156 139.577 123.337 132.514 118.525 131.701C116.649 131.384 114.747 132.063 113.045 133.479C111.635 132.329 110.063 131.751 108.47 131.928Z" fill="black"/>
<path d="M7.20631 133.474C2.59087 133.986 -0.45855 140.638 0.395241 148.332C1.04531 154.19 4.17257 158.683 7.07145 160.681C8.0563 161.36 9.32102 161.874 10.7416 162.11C13.1816 162.515 15.4515 161.995 16.7714 160.89C19.9406 158.959 22.6297 154.511 23.5573 149.022C24.379 144.16 23.6269 139.614 21.8049 136.648C20.6669 134.796 19.1114 133.559 17.2612 133.247C15.3853 132.93 13.4833 133.609 11.7816 135.025C10.3714 133.875 8.79967 133.297 7.20631 133.474Z" fill="black"/>
<path d="M36.5832 119.256C34.6507 119.256 33.4912 112.299 39.6753 113.845C43.9268 115.391 51.2704 118.096 45.0863 121.188C43.4115 121.961 39.8299 122.966 38.9023 120.802C38.2581 120.158 37.7427 119.256 36.5832 119.256Z" fill="black"/>
<path d="M52.0434 116.55L48.9513 121.575L45.6669 125.66C45.5123 125.852 45.376 126.058 45.2437 126.266C44.7496 127.043 44.1799 127.608 43.5403 127.934C43.0521 128.183 42.5613 128.557 41.9943 128.515C42.5369 128.677 43.0551 128.823 43.5496 128.952C54.3267 131.779 53.9089 127.103 52.2503 124.28C52.1066 123.353 52.3101 122.863 52.4299 122.734C60.1599 120.879 55.531 115.391 52.2503 112.878C52.7475 114.013 52.7418 115.324 52.0434 116.55Z" fill="black"/>
<path d="M32.3317 141.286C33.7489 139.74 36.7378 137.421 37.3562 140.513C38.0004 141.415 38.7477 143.451 36.5832 144.379C36.9697 145.925 34.6507 150.563 30.3992 148.244C28.4667 145.152 28.3121 140.977 30.7857 141.286C31.1018 141.359 31.8535 141.77 32.3317 141.286Z" fill="black"/>
<path d="M84.8961 140.513C83.9943 138.014 83.2728 133.107 87.6016 133.479C89.2765 133.504 92.5489 134.561 92.2397 138.581C95.3317 140.9 96.4912 153.655 89.5342 152.109C86.8286 151.207 81.8041 148.398 83.3501 144.379C83.9483 143.348 85.0949 141.132 84.8961 140.513Z" fill="black"/>
<path d="M88.3747 128.145C87.7395 127.722 86.9593 127.197 86.0977 126.599C81.1819 123.19 73.6149 117.413 75.1969 114.618C72.2459 117.71 68.7403 123.739 78.3256 123.121C78.7121 123.25 79.4078 123.739 79.0986 124.667C78.3519 127 78.3625 130.375 82.1866 130.176C83.6413 130.101 85.6479 129.509 88.3747 128.145Z" fill="black"/>
<path d="M88.3747 115.777C92.6262 114.231 91.8532 106.501 86.0556 106.888L76.7693 113.317L76.0066 113.845C77.1661 116.164 79.8716 116.937 82.5771 116.937C83.7366 116.164 86.6998 115.648 88.3747 115.777Z" fill="black"/>
<path d="M95.9797 25.7221C95.9328 25.6698 95.8857 25.6177 95.8384 25.5657C94.956 24.6772 92.539 23.621 91.0802 27.2681C90.8225 27.6546 89.7661 28.5049 89.1477 28.8141C87.2151 29.9736 85.6691 32.6018 91.8532 43.1147C93.7857 43.8877 98.4237 46.5932 99.5832 50.0718C100.356 53.9368 106.1 62.208 105.381 50.4583C105.096 47.6678 104.334 44.7999 103.813 42.3417C103.442 40.5932 103.061 39.052 102.741 37.8935C101.632 33.5288 99.2693 29.3877 95.9797 25.7221Z" fill="black"/>
<path d="M27.4313 120.174C26.4535 119.181 26.1003 117.703 26.0305 116.409C26.0112 116.051 26.0136 115.707 26.0305 115.391C26.0355 115.298 26.0418 115.2 26.0491 115.1C25.6529 115.735 25.27 116.385 24.9041 117.049C23.2727 120.008 21.9808 123.234 21.3651 126.59C22.0574 127.682 24.2151 129.092 27.3072 126C28.1567 126.474 30.2966 126.547 32.06 123.04L27.9994 120.599C27.7959 120.477 27.598 120.343 27.4313 120.174Z" fill="black"/>
<path fill-rule="evenodd" clip-rule="evenodd" d="M12.6249 74.0296C12.6249 82.0536 16.5145 89.436 23.0344 95.2873C83.355 126.208 126.643 75.1891 93.0175 47.9113C84.4996 42.7495 73.4276 39.6308 61.3243 39.6308C42.3 39.6308 25.8235 47.3361 17.8088 58.5695C14.4925 63.2175 12.6249 68.4695 12.6249 74.0296ZM29.2247 68.1518C30.7078 69.373 33.34 68.6263 35.1039 66.484C36.8677 64.3418 37.0954 61.6152 35.6123 60.394C34.1292 59.1729 31.497 59.9196 29.7331 62.0618C27.9692 64.2041 27.7416 66.9307 29.2247 68.1518ZM95.906 68.1518C94.4229 69.373 91.7907 68.6263 90.0268 66.484C88.2629 64.3418 88.0353 61.6152 89.5184 60.394C91.0015 59.1729 93.6337 59.9196 95.3976 62.0618C97.1614 64.2041 97.3891 66.9307 95.906 68.1518Z" fill="#FFBDB1"/>
<path d="M93.0175 47.9113C126.643 75.1891 83.355 126.208 23.0344 95.2873C26.6749 98.5543 31.1354 101.344 36.1967 103.502C41.8261 105.902 48.1989 107.519 55.0134 108.142C57.0792 108.331 59.1857 108.428 61.3243 108.428C64.3479 108.428 67.3071 108.234 70.1783 107.861C77.1303 106.959 83.5658 105.015 89.1477 102.265C101.767 96.0492 110.024 85.7205 110.024 74.0296C110.024 68.5591 108.216 63.3869 104.999 58.7948C102.072 54.6158 97.9777 50.9172 93.0175 47.9113Z" fill="#E7A09E"/>
<path fill-rule="evenodd" clip-rule="evenodd" d="M90.0268 66.484C91.7907 68.6263 94.4229 69.373 95.906 68.1518C97.3891 66.9307 97.1614 64.2041 95.3976 62.0618C93.6337 59.9196 91.0015 59.1729 89.5184 60.394C88.0353 61.6152 88.2629 64.3418 90.0268 66.484Z" fill="#5D4F46"/>
<path d="M35.1039 66.484C33.34 68.6263 30.7078 69.373 29.2247 68.1518C27.7416 66.9307 27.9692 64.2041 29.7331 62.0618C31.497 59.9196 34.1292 59.1729 35.6123 60.394C37.0954 61.6152 36.8677 64.3418 35.1039 66.484Z" fill="#5D4F46"/>
<path d="M120.454 117.323C117.362 116.55 112.338 122.348 114.657 125.44C116.262 128.049 125.092 125.44 126.252 117.323C124.706 117.942 123.546 118.096 120.454 117.323Z" fill="#5D4F46"/>
<path d="M102.741 37.8935C103.061 39.052 103.442 40.5932 103.813 42.3417C115.85 43.2693 121.214 39.6362 122.392 37.7037C119.083 35.5112 110.521 32.4797 102.741 37.8935Z" fill="#E7A09E"/>
<path d="M19.0728 42.7282C19.4842 40.9108 19.9195 39.2956 20.2988 38.0426C12.9012 32.8516 4.11406 35.7788 0.638456 37.7037C0.638456 39.2497 2.58702 42.1098 19.0728 42.7282Z" fill="#E7A09E"/>
<path d="M20.5267 37.3118C21.4984 32.9697 23.701 28.9071 26.835 25.3356C20.1658 22.8841 5.5857 22.2393 0.638456 37.7037C4.11406 35.7788 12.9012 32.8516 20.2988 38.0426C20.3774 37.783 20.4536 37.5389 20.5267 37.3118Z" fill="#FFBDB1"/>
<path d="M95.9797 25.7221C99.2693 29.3877 101.632 33.5288 102.741 37.8935C110.521 32.4797 119.083 35.5112 122.392 37.7037C116.826 21.3159 102.465 22.8877 95.9797 25.7221Z" fill="#FFBDB1"/>
<path d="M86.0977 126.599C86.9593 127.197 87.7395 127.722 88.3747 128.145C90.8483 127.836 97.1354 120.802 99.9697 117.323L98.4237 115.777C92.9897 123.817 87.9422 126.342 86.0977 126.599Z" fill="#F1F1F2"/>
<path d="M40.2019 127.934C40.835 128.284 41.4333 128.474 41.9943 128.515C42.5613 128.557 43.0521 128.183 43.5403 127.934C44.1799 127.608 44.7496 127.043 45.2437 126.266C45.376 126.058 45.5123 125.852 45.6669 125.66C37.7829 125.175 29.291 119.291 26.0305 116.409C26.1003 117.703 26.4535 119.181 27.4313 120.174C27.598 120.343 27.7959 120.477 27.9994 120.599L32.06 123.04L40.2019 127.934Z" fill="#F1F1F2"/>
<path d="M38.1293 153.268C46.117 156.102 67.3489 160.071 88.3747 153.268C76.0066 155.912 49.7243 154.37 38.1293 153.268Z" fill="#F1F1F2"/>
<path d="M43.5403 129.691C43.5403 142.712 52.1925 153.268 62.8655 153.268C73.4056 153.268 81.9749 142.974 82.1866 130.176C78.3625 130.375 78.3519 127 79.0986 124.667C79.4078 123.739 78.7121 123.25 78.3256 123.121C68.7403 123.739 72.2459 117.71 75.1969 114.618C75.3623 114.326 75.6277 114.066 76.0066 113.845L76.7693 113.317C74.9209 110.981 72.6809 109.11 70.1783 107.861C67.3071 108.234 64.3479 108.428 61.3243 108.428C59.1857 108.428 57.0792 108.331 55.0134 108.142C53.547 108.939 52.1769 109.951 50.9304 111.147C51.5125 111.633 51.9645 112.226 52.2503 112.878C55.531 115.391 60.1599 120.879 52.4299 122.734C52.3101 122.863 52.1066 123.353 52.2503 124.28C53.9089 127.103 54.3267 131.779 43.5496 128.952C43.5434 129.198 43.5403 129.444 43.5403 129.691Z" fill="#FFBDB1"/>
<path d="M35.4286 2.91818C35.4286 1.62931 34.8102 -0.716356 32.3366 0.211875C28.7292 2.6008 23.2151 10.3339 30.0176 22.1547C31.22 21.0952 32.5119 20.095 33.8826 19.1615C30.1722 10.2026 33.3672 4.59975 35.4286 2.91818Z" fill="#5D4F46"/>
<path d="M92.8526 22.6247C100.361 11.4212 94.1771 1.37216 90.312 0.211875C88.6544 -0.285738 88.1259 0.862116 87.8463 2.91818C89.8277 4.45028 92.8629 9.95364 89.1525 19.7102C90.457 20.626 91.6934 21.5998 92.8526 22.6247Z" fill="#5D4F46"/>
<path d="M40.4531 15.4789C39.2936 14.6382 36.82 12.185 36.2016 9.09707C35.8151 8.19695 35.1194 5.701 35.4286 2.91818C33.3672 4.59975 30.1722 10.2026 33.8826 19.1615C35.9112 17.78 38.1126 16.5445 40.4531 15.4789Z" fill="#807363"/>
<path d="M87.22 9.09707C86.0624 12.5173 84.901 13.3538 82.582 15.8738C84.9146 16.9929 87.1164 18.2808 89.1525 19.7102C92.8629 9.95364 89.8277 4.45028 87.8463 2.91818C87.6263 4.53547 87.5603 6.71471 87.22 9.09707Z" fill="#807363"/>
<path fill-rule="evenodd" clip-rule="evenodd" d="M108.335 159.135C105.436 157.137 102.309 152.644 101.659 146.786C101.027 141.089 102.535 135.964 105.234 133.479C105.344 132.126 105.333 130.782 105.216 129.453C105.155 128.755 105.065 128.061 104.948 127.372C103.045 116.122 94.0963 106.264 89.1477 102.265C83.5658 105.015 77.1303 106.959 70.1783 107.861C72.6809 109.11 74.9209 110.981 76.7693 113.317L86.0556 106.888C91.8532 106.501 92.6262 114.231 88.3747 115.777C86.6998 115.648 83.7366 116.164 82.5771 116.937C79.8716 116.937 77.1661 116.164 76.0066 113.845C75.6277 114.066 75.3623 114.326 75.1969 114.618C73.6149 117.413 81.1819 123.19 86.0977 126.599C87.9422 126.342 92.9897 123.817 98.4237 115.777L99.9697 117.323C97.1354 120.802 90.8483 127.836 88.3747 128.145C85.6479 129.509 83.6413 130.101 82.1866 130.176C81.9749 142.974 73.4056 153.268 62.8655 153.268C52.1925 153.268 43.5403 142.712 43.5403 129.691C43.5403 129.444 43.5434 129.198 43.5496 128.952C43.0551 128.823 42.5369 128.677 41.9943 128.515C41.4333 128.474 40.835 128.284 40.2019 127.934L32.06 123.04C30.2966 126.547 28.1567 126.474 27.3072 126C24.2151 129.092 22.0574 127.682 21.3651 126.59C20.7649 129.862 20.8075 133.257 21.8049 136.648C23.6269 139.614 24.379 144.16 23.5573 149.022C22.6297 154.511 19.9406 158.959 16.7714 160.89C20.7987 160.411 30.7084 158.215 38.1293 153.268C49.7243 154.37 76.0066 155.912 88.3747 153.268C90.602 154.748 97.7123 157.993 108.335 159.135ZM37.3562 140.513C36.7378 137.421 33.7489 139.74 32.3317 141.286C31.8535 141.77 31.1018 141.359 30.7857 141.286C28.3121 140.977 28.4667 145.152 30.3992 148.244C34.6507 150.563 36.9697 145.925 36.5832 144.379C38.7477 143.451 38.0004 141.415 37.3562 140.513ZM87.6016 133.479C83.2728 133.107 83.9943 138.014 84.8961 140.513C85.0949 141.132 83.9483 143.348 83.3501 144.379C81.8041 148.398 86.8286 151.207 89.5342 152.109C96.4912 153.655 95.3317 140.9 92.2397 138.581C92.5489 134.561 89.2765 133.504 87.6016 133.479Z" fill="white"/>
<path fill-rule="evenodd" clip-rule="evenodd" d="M49.4537 110.273L36.5832 105.342C36.3062 105.231 35.321 104.623 35.0372 104.569L31.5587 107.274C29.0851 109.129 26.8549 113.265 26.0491 115.1C26.0418 115.2 26.0355 115.298 26.0305 115.391C26.0136 115.707 26.0112 116.051 26.0305 116.409C29.291 119.291 37.7829 125.175 45.6669 125.66L48.9513 121.575L52.0434 116.55C52.7418 115.324 52.7475 114.013 52.2503 112.878C51.9645 112.226 51.5125 111.633 50.9304 111.147C50.5034 110.791 50.0064 110.493 49.4537 110.273ZM39.6753 113.845C33.4912 112.299 34.6507 119.256 36.5832 119.256C37.7427 119.256 38.2581 120.158 38.9023 120.802C39.8299 122.966 43.4115 121.961 45.0863 121.188C51.2704 118.096 43.9268 115.391 39.6753 113.845Z" fill="white"/>
<path d="M106.54 125.44C105.922 126.677 105.221 127.244 104.948 127.372C105.065 128.061 105.155 128.755 105.216 129.453C106.94 129.882 112.228 126.956 114.657 125.44C109.4 126.677 106.927 125.955 106.54 125.44Z" fill="white"/>
<path d="M55.0134 108.142C48.1989 107.519 41.8261 105.902 36.1967 103.502C35.7926 103.828 35.4785 104.177 35.0372 104.569C35.321 104.623 36.3062 105.231 36.5832 105.342L49.4537 110.273C50.0064 110.493 50.5034 110.791 50.9304 111.147C52.1769 109.951 53.547 108.939 55.0134 108.142Z" fill="white"/>
<path fill-rule="evenodd" clip-rule="evenodd" d="M61.3243 39.6308C73.4276 39.6308 84.4996 42.7495 93.0175 47.9113C97.9777 50.9172 102.072 54.6158 104.999 58.7948C105.486 56.555 105.697 53.5543 105.381 50.4583C106.1 62.208 100.356 53.9368 99.5832 50.0718C98.4237 46.5932 93.7857 43.8877 91.8532 43.1147C85.6691 32.6018 87.2151 29.9736 89.1477 28.8141C89.7661 28.5049 90.8225 27.6546 91.0802 27.2681C92.539 23.621 94.956 24.6772 95.8384 25.5657C94.9127 24.5462 93.9151 23.564 92.8526 22.6247C91.6934 21.5998 90.457 20.626 89.1525 19.7102C87.1164 18.2808 84.9146 16.9929 82.582 15.8738C76.2309 12.8265 68.9102 11.0296 61.3243 11.0296C53.8103 11.0296 46.645 12.6598 40.4531 15.4789C38.1126 16.5445 35.9112 17.78 33.8826 19.1615C32.5119 20.095 31.22 21.0952 30.0176 22.1547C28.8728 23.1633 27.8089 24.2257 26.835 25.3356C23.701 28.9071 21.4984 32.9697 20.5267 37.3118C20.4536 37.5389 20.3774 37.783 20.2988 38.0426C19.9195 39.2956 19.4842 40.9108 19.0728 42.7282C17.9736 47.5845 17.0446 53.8839 17.8088 58.5695C25.8235 47.3361 42.3 39.6308 61.3243 39.6308ZM79.6364 39.1659C81.6411 39.1659 83.2663 37.5407 83.2663 35.536C83.2663 33.5313 81.6411 31.9061 79.6364 31.9061C77.6317 31.9061 76.0066 33.5313 76.0066 35.536C76.0066 37.5407 77.6317 39.1659 79.6364 39.1659ZM41.7591 39.1659C43.7638 39.1659 45.389 37.5407 45.389 35.536C45.389 33.5313 43.7638 31.9061 41.7591 31.9061C39.7544 31.9061 38.1293 33.5313 38.1293 35.536C38.1293 37.5407 39.7544 39.1659 41.7591 39.1659Z" fill="white"/>
<path fill-rule="evenodd" clip-rule="evenodd" d="M83.2663 35.536C83.2663 37.5407 81.6411 39.1659 79.6364 39.1659C77.6317 39.1659 76.0066 37.5407 76.0066 35.536C76.0066 33.5313 77.6317 31.9061 79.6364 31.9061C81.6411 31.9061 83.2663 33.5313 83.2663 35.536ZM79.3433 36.1503C79.8444 36.1503 80.2507 35.744 80.2507 35.2428C80.2507 34.7417 79.8444 34.3354 79.3433 34.3354C78.8421 34.3354 78.4358 34.7417 78.4358 35.2428C78.4358 35.744 78.8421 36.1503 79.3433 36.1503Z" fill="black"/>
<path fill-rule="evenodd" clip-rule="evenodd" d="M45.389 35.536C45.389 37.5407 43.7638 39.1659 41.7591 39.1659C39.7544 39.1659 38.1293 37.5407 38.1293 35.536C38.1293 33.5313 39.7544 31.9061 41.7591 31.9061C43.7638 31.9061 45.389 33.5313 45.389 35.536ZM41.4662 36.1505C41.9673 36.1505 42.3736 35.7442 42.3736 35.243C42.3736 34.7419 41.9673 34.3356 41.4662 34.3356C40.965 34.3356 40.5587 34.7419 40.5587 35.243C40.5587 35.7442 40.965 36.1505 41.4662 36.1505Z" fill="black"/>
<path fill-rule="evenodd" clip-rule="evenodd" d="M79.3433 36.1503C79.8444 36.1503 80.2507 35.744 80.2507 35.2428C80.2507 34.7417 79.8444 34.3354 79.3433 34.3354C78.8421 34.3354 78.4358 34.7417 78.4358 35.2428C78.4358 35.744 78.8421 36.1503 79.3433 36.1503Z" fill="white"/>
<path d="M42.3736 35.243C42.3736 35.7442 41.9673 36.1505 41.4662 36.1505C40.965 36.1505 40.5587 35.7442 40.5587 35.243C40.5587 34.7419 40.965 34.3356 41.4662 34.3356C41.9673 34.3356 42.3736 34.7419 42.3736 35.243Z" fill="white"/>
</svg>
