<svg width="178" height="106" viewBox="0 0 178 106" fill="none" xmlns="http://www.w3.org/2000/svg">
<path d="M34.252 43.2461V68.2461H40.252V43.2461H34.252Z" fill="#999998"/>
<path d="M80.252 43.2461V68.2461H86.252V43.2461H80.252Z" fill="#999998"/>
<path fill-rule="evenodd" clip-rule="evenodd" d="M34.252 43.2461H3.75195V68.2461H34.252V43.2461ZM40.252 68.2461H80.252V43.2461H40.252V68.2461ZM126.752 68.2461H86.252V43.2461H126.752V68.2461ZM132.752 68.2461H175.752V43.2461H132.752V68.2461Z" fill="#D9D9D9"/>
<path d="M126.752 43.2461V68.2461H132.752V43.2461H126.752Z" fill="#999998"/>
<path d="M34.4648 17.4961L20.6084 0.246094L6.75195 17.4961V105.746H34.4648V17.4961Z" fill="#E3E3E3"/>
<path d="M80.3202 17.4961L66.4638 0.246094L52.6074 17.4961V105.746H80.3202V17.4961Z" fill="#E3E3E3"/>
<path d="M126.32 17.4961L112.464 0.246094L98.6074 17.4961V105.746H126.32V17.4961Z" fill="#E3E3E3"/>
<path d="M172.32 17.4961L158.464 0.246094L144.607 17.4961V105.746H172.32V17.4961Z" fill="#E3E3E3"/>
<path d="M3.75195 105.746C6.15195 101.746 2.75195 86.7461 0.751953 79.7461C4.35195 81.7461 6.58529 93.5794 7.25195 99.2461C9.25195 96.0461 7.41862 82.5794 6.25195 76.2461C9.00736 79.0015 10.6975 89.4073 11.2271 94.5029C11.3113 93.5179 12.7952 90.3624 14.3411 87.3232C15.097 82.1027 16.2925 77.8244 17.1925 75.4044C17.2119 75.3494 17.2317 75.2966 17.252 75.2461C17.2323 75.2979 17.2125 75.3507 17.1925 75.4044C16.683 76.8469 16.4482 79.7965 16.386 83.3961C16.5051 83.1752 16.6271 82.9584 16.752 82.7461C16.6358 82.959 16.5133 83.185 16.3855 83.4219C16.2643 90.5369 16.8153 100.179 17.252 105.746H14.252C13.3492 99.9686 13.4991 94.1776 14.1039 89.1178C12.2801 95.2709 11.752 102.234 11.752 105.746H3.75195Z" fill="#679D42"/>
<path d="M24.752 105.746H18.752C19.952 105.346 18.252 91.9128 17.252 85.2461C19.252 88.0461 21.4186 97.0794 22.252 101.246C23.052 100.846 22.5853 95.0794 22.252 92.2461C24.252 97.8461 24.752 103.579 24.752 105.746Z" fill="#679D42"/>
<path d="M27.752 105.746C28.952 102.946 24.9186 92.2461 22.752 87.2461C24.752 92.8461 25.5853 101.913 25.752 105.746H27.752Z" fill="#679D42"/>
<path d="M35.252 105.746C36.052 102.546 31.9186 90.7461 29.752 85.2461C30.952 89.6461 31.252 100.746 31.252 105.746H35.252Z" fill="#679D42"/>
<path d="M36.252 105.746C37.052 101.746 34.252 91.0794 32.752 86.2461C33.152 86.2461 35.252 92.5794 36.252 95.7461C37.052 95.7205 35.5853 89.4021 34.752 86.2461C35.952 88.2461 37.5853 92.4128 38.252 94.2461C37.452 87.4461 39.9186 79.4128 41.252 76.2461C40.5192 78.0779 40.5695 88.7178 40.7111 95.1044C40.8077 91.3911 41.9577 85.8346 42.953 81.798C42.7375 81.2389 42.5043 80.7192 42.252 80.2461C42.5014 80.4706 42.7926 80.7779 43.1102 81.1678C43.1141 81.1522 43.118 81.1367 43.122 81.1212C43.283 80.1793 43.4904 79.3738 43.752 78.7461C43.5644 79.4159 43.3493 80.2219 43.122 81.1212C43.1191 81.138 43.1162 81.1548 43.1134 81.1717C44.9181 83.3888 47.5721 88.2674 48.252 95.7461C48.752 89.0794 50.052 75.7461 51.252 75.7461C50.9186 84.0794 50.552 101.746 51.752 105.746H45.252C45.5571 100.254 45.4712 88.478 43.0003 81.922C42.1311 88.3794 43.0573 99.9114 43.752 105.746H36.252Z" fill="#679D42"/>
<path d="M55.252 97.7461L51.752 86.7461C53.752 94.7461 54.252 102.746 54.252 105.746H59.252C56.852 103.746 57.252 86.5794 57.752 78.2461C55.352 81.4461 55.0853 92.5794 55.252 97.7461Z" fill="#679D42"/>
<path d="M64.752 105.746C65.152 97.3461 60.9186 85.5794 58.752 80.7461C60.752 88.3461 60.9186 100.579 60.752 105.746H64.752Z" fill="#679D42"/>
<path d="M64.252 90.7461C65.2958 93.281 67.2734 98.2441 67.6784 99.8342L65.252 86.2461C66.9186 89.4128 70.252 97.7461 70.252 105.746H65.752C65.5853 102.079 65.052 93.9461 64.252 90.7461Z" fill="#679D42"/>
<path d="M67.752 85.2461C69.6926 88.9656 73.422 97.7063 73.2764 103.703C73.5973 96.3327 73.8126 81.6478 72.252 77.7461C73.9186 79.5794 77.652 87.7461 79.252 105.746H71.252C70.9186 101.246 69.752 90.8461 67.752 85.2461Z" fill="#679D42"/>
<path d="M77.752 88.7461C78.8893 91.3052 80.9242 96.3384 81.2494 98.7557C81.2317 95.0735 81.1163 88.3891 80.752 84.7461C82.0853 88.5794 84.852 96.4461 85.252 97.2461C85.252 91.5794 85.752 79.8461 87.752 78.2461C87.252 87.2461 86.652 105.346 88.252 105.746H80.252C80.0853 102.579 79.352 94.7461 77.752 88.7461Z" fill="#679D42"/>
<path d="M92.752 105.746C92.752 102.946 89.752 92.2461 88.252 87.2461C89.052 91.6461 89.9186 101.413 90.252 105.746H92.752Z" fill="#679D42"/>
<path d="M93.752 105.746C94.152 103.746 91.9186 91.9128 90.752 86.2461C91.552 85.8461 93.0853 92.4128 93.752 95.7461C94.552 95.7461 93.752 88.0794 93.252 84.2461C96.052 87.8461 98.2124 98.4128 98.9426 103.246C99.8951 102.846 98.5457 90.4128 97.752 84.2461C99.752 86.2461 102.252 97.7461 103.252 103.246C104.452 102.046 102.085 90.7461 100.752 85.2461C102.352 86.8461 104.085 93.9128 104.752 97.2461C104.752 94.0555 104.973 91.1448 105.305 88.5946C105.129 88.1363 104.944 87.686 104.752 87.2461C104.93 87.6158 105.122 88.018 105.324 88.4454C105.993 83.4005 107.091 79.7888 107.752 78.2461C106.734 80.6898 106.536 85.9155 106.698 91.4029C108.264 94.8378 109.944 98.7523 110.547 100.852L108.252 85.2461L112.752 99.7461L112.252 85.2461C114.252 90.4128 118.152 101.746 117.752 105.746H108.752C108.634 103.26 108.078 98.1993 106.762 93.1824C106.962 97.9054 107.389 102.621 107.752 105.746H93.752Z" fill="#679D42"/>
<path d="M122.752 105.746C123.952 92.9461 119.585 79.4128 117.252 74.2461C119.652 97.8461 119.252 105.079 118.752 105.746H122.752Z" fill="#679D42"/>
<path d="M123.252 85.2461L128.252 102.746L125.252 85.7461L128.752 93.7461L127.252 82.7461L130.252 92.7461C130.585 88.9128 131.752 80.9461 133.752 79.7461C132.919 84.7461 131.552 95.2461 132.752 97.2461C132.919 93.7461 133.852 85.7461 136.252 81.7461C136.062 83.7835 135.835 86.4405 135.625 89.2461L140.252 102.246C139.964 96.9128 138.252 86.2461 137.752 84.7461C139.03 87.5867 141.325 93.1387 141.728 95.7081C142.009 92.7867 143.016 85.7461 143.752 85.7461C143.585 92.4128 143.452 105.746 144.252 105.746H136.752C136.834 102.413 136.724 94.4461 135.625 89.2461C135.097 96.3094 134.679 104.315 135.252 105.746H124.252L123.252 85.2461Z" fill="#679D42"/>
<path d="M143.752 90.2461L146.252 97.2461C146.1 90.8673 145.644 78.5928 144.959 76.1617C144.887 76.0174 144.818 75.8786 144.752 75.7461C144.823 75.7816 144.892 75.925 144.959 76.1617C146.439 79.1566 148.922 84.5227 148.784 85.629L150.252 80.2461C149.752 86.5794 149.052 99.4461 150.252 100.246C151.252 92.9128 151.071 78.2461 150.752 76.7461C152.752 86.0794 156.452 104.946 155.252 105.746H145.752C145.252 101.413 144.152 92.2461 143.752 90.2461Z" fill="#679D42"/>
<path d="M156.252 105.746C154.652 96.1461 158.919 81.7461 161.252 75.7461C159.252 86.9461 159.419 96.7461 159.752 100.246L160.752 89.2461C162.857 92.0461 163.629 101.413 163.752 105.746H156.252Z" fill="#679D42"/>
<path d="M166.252 99.2461C166.419 93.7461 167.552 82.1461 170.752 79.7461C169.919 87.7461 168.852 104.146 171.252 105.746C171.752 103.746 172.652 97.7461 172.252 89.7461L174.752 100.246C174.752 96.2461 175.352 87.5461 177.752 84.7461C176.919 91.4128 175.752 104.946 177.752 105.746H171.252H164.752C164.508 101.571 163.71 92.9005 162.347 88.3988L161.842 86.9971C162.018 87.3972 162.187 87.8692 162.347 88.3988L166.252 99.2461Z" fill="#679D42"/>
<path d="M27.752 91.7461C28.952 95.3461 28.9186 102.579 28.752 105.746H30.252C31.052 102.946 28.9186 95.2461 27.752 91.7461Z" fill="#679D42"/>
</svg>
