<svg width="152" height="153" viewBox="0 0 152 153" fill="none" xmlns="http://www.w3.org/2000/svg">
<path fill-rule="evenodd" clip-rule="evenodd" d="M149.426 96.19C153.738 80.045 152.593 63.0009 146.29 47.6725C144.683 43.7667 140.099 42.2364 136.253 43.9819L106.668 57.4114C105.718 57.8424 104.825 56.7143 105.463 55.8893L126.204 29.0534C128.641 25.9006 128.414 21.3975 125.385 18.8082C112.638 7.90987 96.5822 1.48942 79.7011 0.666407C60.4978 -0.269829 41.6532 6.1069 26.9643 18.5118C-12 90.0762 26.9643 157.076 116.355 140.978C132.647 130.769 144.464 114.765 149.426 96.19Z" fill="#097F2D"/>
<path d="M61.6277 151.205C80.5069 154.841 100.063 151.186 116.355 140.978C26.9643 157.076 -12 90.0762 26.9643 18.5118C12.2754 30.9167 2.83391 48.4278 0.542102 67.5169C-1.7497 86.6059 3.27852 105.854 14.6137 121.384C25.9488 136.913 42.7485 147.569 61.6277 151.205Z" fill="#269640"/>
</svg>
