<svg width="138" height="108" viewBox="0 0 138 108" fill="none" xmlns="http://www.w3.org/2000/svg">
<path d="M107.146 96.2728H131.799C134.687 96.2728 137.028 98.6141 137.028 101.502C137.028 104.39 134.687 106.732 131.799 106.732H107.146V96.2728Z" fill="#2CBA4D"/>
<path d="M133.716 76.9915C129.362 92.2949 119.308 102.845 111.26 100.555C103.212 98.2654 100.217 84.0034 104.571 68.7C108.925 53.3966 118.978 42.8468 127.027 45.1364C135.075 47.4261 138.069 61.6881 133.716 76.9915Z" fill="#2CBA4D"/>
<path d="M30.854 96.2728H6.20111C3.313 96.2728 0.971722 98.6141 0.971722 101.502C0.971722 104.39 3.313 106.732 6.20111 106.732H30.854V96.2728Z" fill="#2CBA4D"/>
<path d="M4.28428 76.9915C8.63803 92.2949 18.6917 102.845 26.7398 100.555C34.7878 98.2654 37.7827 84.0034 33.4289 68.7C29.0752 53.3966 19.0215 42.8468 10.9734 45.1364C2.92538 47.4261 -0.0694656 61.6881 4.28428 76.9915Z" fill="#2CBA4D"/>
<path fill-rule="evenodd" clip-rule="evenodd" d="M38.3298 0C29.7564 0 22.7162 6.56453 21.9615 14.9414H21.8945V16.4352V98.6116C21.8945 103.563 25.9081 107.576 30.8592 107.576H107.083C112.034 107.576 116.048 103.563 116.048 98.6117V14.9414H115.956C115.201 6.56453 108.161 0 99.5876 0C91.0142 0 83.974 6.56453 83.2193 14.9414H54.698C53.9433 6.56453 46.9031 0 38.3298 0Z" fill="#4CD467"/>
<rect x="32.3535" y="50.8008" width="73.2115" height="46.3175" rx="8.96467" fill="#57F677"/>
<circle cx="99.5877" cy="16.4353" r="10.4588" fill="white"/>
<circle cx="99.5878" cy="16.4354" r="5.97645" fill="black"/>
<circle cx="38.3299" cy="16.4353" r="10.4588" fill="white"/>
<circle cx="38.33" cy="16.4354" r="5.97645" fill="black"/>
<circle cx="99.1466" cy="16.1739" r="1.17394" fill="white"/>
<circle cx="38.1466" cy="16.1739" r="1.17394" fill="white"/>
</svg>
