<svg width="209" height="170" viewBox="0 0 209 170" fill="none" xmlns="http://www.w3.org/2000/svg">
<path d="M197 112L169.907 49.8661L104.5 15L39.0926 49.8661L12 112" stroke="#E3E3E3" stroke-width="20"/>
<path d="M168.392 48.9604L104.752 15L41.1123 48.9604L14.752 109.48V170H41.1123H168.392H194.752V109.48L168.392 48.9604Z" fill="#C31224"/>
<path d="M199.752 109L171.927 47.5067L104.752 13L37.5768 47.5067L9.75195 109" stroke="white" stroke-width="10"/>
<path d="M81.9148 148.587H128.589L105.252 157.091L81.9148 148.587ZM140.252 143.587H70.252V97.5H140.252V143.587ZM112.554 159.752L140.252 149.659V167.5H133.818L112.554 159.752ZM70.252 149.659L97.9499 159.752L76.6857 167.5H70.252V149.659ZM91.2898 167.5L105.252 162.412L119.214 167.5H105.252H91.2898Z" fill="#C31224" style="mix-blend-mode:multiply"/>
<path d="M81.9148 148.587H128.589L105.252 157.091L81.9148 148.587ZM140.252 143.587H70.252V97.5H140.252V143.587ZM112.554 159.752L140.252 149.659V167.5H133.818L112.554 159.752ZM70.252 149.659L97.9499 159.752L76.6857 167.5H70.252V149.659ZM91.2898 167.5L105.252 162.412L119.214 167.5H105.252H91.2898Z" stroke="white" stroke-width="5"/>
<path d="M79.252 63.2029V42.6949L99.7731 56.5L79.252 70.3051V63.2029ZM84.947 72.5L104.252 59.5131L123.557 72.5H118.002H104.252H90.502H84.947ZM129.252 70.3051L108.731 56.5L129.252 42.6949V63.2029V70.3051ZM123.557 40.5L104.252 53.4869L84.947 40.5H123.557Z" stroke="white" stroke-width="5"/>
</svg>
