<svg width="135" height="143" viewBox="0 0 135 143" fill="none" xmlns="http://www.w3.org/2000/svg">
<path fill-rule="evenodd" clip-rule="evenodd" d="M25.3194 70.8798C30.0383 100.344 91.324 109.38 104.526 71.6656L104.537 71.4523C101.513 61.7644 81.0932 59.8798 64.0612 59.8798C47.37 59.8798 28.7122 61.6897 25.3194 70.8798Z" fill="#EBD5A4"/>
<path d="M64.0612 103.094C74.4269 103.094 86.2959 99.1226 94.564 92.7143C95.9504 91.6397 97.2356 90.4967 98.3954 89.2923C102.625 84.9004 105.188 79.6936 104.918 74.0227C104.918 73.1102 104.787 72.2545 104.537 71.4523L104.526 71.6656C91.324 109.38 30.0383 100.344 25.3194 70.8798C25.0903 71.5004 24.9308 72.1546 24.8462 72.8441C24.7993 73.226 24.7754 73.6188 24.7754 74.0227C24.4195 80.9698 28.6716 87.5939 35.1454 92.7596C36.1432 93.5557 37.1937 94.3172 38.2883 95.0399C45.7546 99.9697 55.2698 103.094 64.0612 103.094Z" fill="#E0C286"/>
<path d="M24.7759 72.4513C24.771 72.5822 24.7782 72.8441 24.8462 72.8441C24.9308 72.1546 25.0903 71.5004 25.3194 70.8798C28.7122 61.6897 47.37 59.8798 64.0612 59.8798C81.0932 59.8798 101.513 61.7644 104.537 71.4523C105.745 47.5727 100.248 30.5195 91.7168 19.7679C90.7899 18.5998 89.8272 17.5061 88.8334 16.4861C88.4887 16.1323 88.1402 15.7874 87.7883 15.4514C81.0476 16.5578 77.1329 20.2545 75.014 23.9811C74.2035 44.8426 71.498 56.0084 64.0612 57.9156C55.2706 56.3741 53.2159 36.8948 53.3771 20.7239C49.9172 22.069 46.7272 24.2343 44.9668 25.7013C43.3954 20.3584 50.3359 11.4012 54.0026 7.5904C52.8105 8.03601 51.6302 8.55868 50.4668 9.15811C48.7209 10.0577 47.0128 11.1302 45.3597 12.3744C43.7294 13.6015 42.1525 14.9957 40.6454 16.556C39.7777 17.4543 38.9332 18.4076 38.1148 19.4157C29.0988 30.5231 23.2658 48.2883 24.7759 72.4513Z" fill="#A37855"/>
<path d="M64.4545 5.66556C60.9525 5.66556 57.4287 6.30966 54.0026 7.5904C50.3359 11.4012 43.3954 20.3584 44.9668 25.7013C46.7272 24.2343 49.9172 22.069 53.3771 20.7239C56.0944 19.6676 58.9783 19.1172 61.4668 19.8084C59.1097 20.7251 55.1026 24.6798 57.9311 33.1656C59.7645 29.8917 65.0811 22.8727 71.6811 20.987C70.7645 23.4751 69.7168 28.9227 72.8597 30.8084C72.9656 29.052 73.5764 26.5096 75.014 23.9811C77.1329 20.2545 81.0476 16.5578 87.7883 15.4514C86.6996 14.4119 85.577 13.457 84.4262 12.5858C82.7214 11.2951 80.9548 10.1882 79.1454 9.2624C77.8851 8.61752 76.604 8.06049 75.3085 7.5904C71.7549 6.30089 68.0929 5.66556 64.4545 5.66556Z" fill="#5F3E1B"/>
<path d="M84.4262 12.5858C85.577 13.457 86.6996 14.4119 87.7883 15.4514C88.1402 15.7874 88.4887 16.1323 88.8334 16.4861C92.498 12.8852 96.4311 7.63002 96.824 5.27288C93.0526 5.58716 86.9874 10.2791 84.4262 12.5858Z" fill="#5F3E1B"/>
<path d="M32.7883 5.27288C32.6573 5.98543 34.0454 9.23962 40.6454 16.556C42.1525 14.9957 43.7294 13.6015 45.3597 12.3744C35.9311 5.48426 33.0502 4.76916 32.7883 5.27288Z" fill="#5F3E1B"/>
<path d="M50.4668 9.15811C44.1811 -0.933703 33.7049 -0.517918 29.2526 0.951451C28.7441 5.79669 29.8046 16.2729 38.1148 19.4157C38.9332 18.4076 39.7777 17.4543 40.6454 16.556C34.0454 9.23962 32.6573 5.98543 32.7883 5.27288C33.0502 4.76916 35.9311 5.48426 45.3597 12.3744C47.0128 11.1302 48.7209 10.0577 50.4668 9.15811Z" fill="#A37855"/>
<path d="M100.753 0.951271C96.824 -0.71036 87.0025 -1.37442 79.1454 9.2624C80.9548 10.1882 82.7214 11.2951 84.4262 12.5858C86.9874 10.2791 93.0526 5.58716 96.824 5.27288C96.4311 7.63002 92.498 12.8852 88.8334 16.4861C89.8272 17.5061 90.7899 18.5998 91.7168 19.7679C100.203 15.6497 101.276 5.50756 100.753 0.951271Z" fill="#A37855"/>
<path d="M57.9311 33.1656C55.1026 24.6798 59.1097 20.7251 61.4668 19.8084C58.9783 19.1172 56.0944 19.6676 53.3771 20.7239C53.2159 36.8948 55.2706 56.3741 64.0612 57.9156C71.498 56.0084 74.2035 44.8426 75.014 23.9811C73.5764 26.5096 72.9656 29.052 72.8597 30.8084C69.7168 28.9227 70.7645 23.4751 71.6811 20.987C65.0811 22.8727 59.7645 29.8917 57.9311 33.1656Z" fill="white"/>
<path d="M52.824 126.107L52.0383 117.857C56.7526 113.143 69.6383 106.543 83.4668 117.857L83.074 126.107L98.0025 128.924C102.088 113.577 97.4126 98.3897 94.564 92.7143C86.2959 99.1226 74.4269 103.094 64.0612 103.094C55.2698 103.094 45.7546 99.9697 38.2883 95.0399C35.4073 99.5901 30.7454 112.829 35.1454 129.381L52.824 126.107Z" fill="#A37855"/>
<path d="M31.6097 130.036C28.7471 122.307 28.4375 114.997 29.308 108.821C25.7538 110.524 17.7811 114.479 14.324 116.679C14.1064 120.704 14.2503 128.996 16.1075 134.75C19.4304 134.493 27.1402 133.388 31.3965 131.025C31.4837 130.683 31.557 130.352 31.6097 130.036Z" fill="#A37855"/>
<path d="M106.177 108.821C107.249 117.686 105.563 125.726 103.895 130.036C103.992 130.357 104.088 130.675 104.182 130.987L104.251 131.214C107.71 132.524 115.599 135.064 119.477 134.75C121.259 129.257 121.396 120.86 121.181 116.679L106.177 108.821Z" fill="#A37855"/>
<path d="M117.645 90.3571C117.374 90.2388 117.1 90.1077 116.828 89.9643C114.704 93.7619 109.485 102.143 105.604 105.286C105.738 105.943 105.856 106.598 105.958 107.25C108.675 104.524 114.974 97.3354 118.431 90.3927C118.176 90.3863 117.914 90.3745 117.645 90.3571Z" fill="#A37855"/>
<path d="M16.1075 134.75C14.2503 128.996 14.1064 120.704 14.324 116.679C8.43108 115.5 1.35965 110.786 0.966797 122.179L8.82394 123.357L0.966797 124.143C1.75251 136.321 3.7168 145.357 17.4668 137.893C16.935 136.989 16.4857 135.922 16.1075 134.75Z" fill="#5F3E1B"/>
<path d="M37.1097 143L38.2883 135.143L39.4668 143C48.6355 141.811 53.0344 140.403 54.7883 138.362C56.0565 136.886 55.9418 135.079 55.2475 132.786C54.6804 130.913 53.7266 128.715 52.824 126.107L35.1454 129.381L31.6097 130.036C31.557 130.352 31.4837 130.683 31.3965 131.025C30.9194 132.895 30.0234 135.101 29.7716 137.107C29.3829 140.202 30.5275 142.822 37.1097 143Z" fill="#5F3E1B"/>
<path d="M96.4311 143L97.2168 135.143L98.3954 143C104.922 143 106.244 140.745 105.705 136.926C105.474 135.291 104.902 133.369 104.251 131.214L104.182 130.987C104.088 130.675 103.992 130.357 103.895 130.036L98.0025 128.924L83.074 126.107C82.2749 128.105 80.7084 130.464 79.9507 132.786C79.2946 134.796 79.245 136.78 80.8254 138.477C82.8037 140.602 87.3364 142.278 96.4311 143Z" fill="#5F3E1B"/>
<path d="M116.828 89.9643C117.1 90.1077 117.374 90.2388 117.645 90.3571C117.914 90.3745 118.176 90.3863 118.431 90.3927C130.703 90.7007 127.074 78.9643 123.931 72.2857C108.217 80.1429 112.145 88.3929 116.828 89.9643Z" fill="#5F3E1B"/>
<path d="M121.181 116.679C121.396 120.86 121.259 129.257 119.477 134.75C119.083 135.965 118.608 137.039 118.038 137.893C129.431 143 132.967 142.607 134.538 124.143L126.681 123.357L134.538 121.786C133.36 109.214 125.895 116.679 121.181 116.679Z" fill="#5F3E1B"/>
<path d="M52.0383 117.857L52.824 126.107C53.7266 128.715 54.6804 130.913 55.2475 132.786C59.036 134.226 69.2806 136.243 79.9507 132.786C80.7084 130.464 82.2749 128.105 83.074 126.107L83.4668 117.857C69.6383 106.543 56.7526 113.143 52.0383 117.857Z" fill="#EBD5A4"/>
<path d="M38.2883 95.0399C37.1937 94.3172 36.1432 93.5557 35.1454 92.7596C33.0773 95.6752 30.3489 101.437 29.308 108.821C28.4375 114.997 28.7471 122.307 31.6097 130.036L35.1454 129.381C30.7454 112.829 35.4073 99.5901 38.2883 95.0399Z" fill="#8E6643"/>
<path d="M17.4668 137.893C19.6462 138.286 25.1582 138.679 29.7716 137.107C30.0234 135.101 30.9194 132.895 31.3965 131.025C27.1402 133.388 19.4304 134.493 16.1075 134.75C16.4857 135.922 16.935 136.989 17.4668 137.893Z" fill="#8E6643"/>
<path d="M55.2475 132.786C55.9418 135.079 56.0565 136.886 54.7883 138.362C59.9682 139.811 72.345 141.834 80.8254 138.477C79.245 136.78 79.2946 134.796 79.9507 132.786C69.2806 136.243 59.036 134.226 55.2475 132.786Z" fill="#8E6643"/>
<path d="M105.604 105.286C104.504 99.9071 102.297 94.3714 98.3954 89.2923C97.2356 90.4967 95.9504 91.6397 94.564 92.7143C97.4126 98.3897 102.088 113.577 98.0025 128.924L103.895 130.036C105.563 125.726 107.249 117.686 106.177 108.821C106.114 108.3 106.041 107.776 105.958 107.25C105.856 106.598 105.738 105.943 105.604 105.286Z" fill="#8E6643"/>
<path d="M105.705 136.926C108.41 138.353 115.054 138.165 118.038 137.893C118.608 137.039 119.083 135.965 119.477 134.75C115.599 135.064 107.71 132.524 104.251 131.214C104.902 133.369 105.474 135.291 105.705 136.926Z" fill="#8E6643"/>
<ellipse cx="43.0025" cy="76.7715" rx="3.53571" ry="2.75" fill="black"/>
<ellipse cx="87.0025" cy="76.7715" rx="3.53571" ry="2.75" fill="black"/>
<circle cx="88.1626" cy="49.6469" r="4.69578" fill="black"/>
<circle cx="41.8052" cy="49.6469" r="4.69578" fill="black"/>
<circle cx="87.7833" cy="49.2677" r="1.17394" fill="white"/>
<circle cx="41.4259" cy="49.2677" r="1.17394" fill="white"/>
</svg>
