<svg width="128" height="127" viewBox="0 0 128 127" fill="none" xmlns="http://www.w3.org/2000/svg">
<path d="M15.8777 111.056C9.96793 113.065 6.39182 115.695 6.62726 118.279C6.83077 120.512 9.44502 122.238 15.8777 123.538V111.056Z" fill="#FF7575"/>
<path d="M115.19 118.273C115.426 115.689 111.85 113.059 105.94 111.051V123.533C112.373 122.232 114.987 120.506 115.19 118.273Z" fill="#FF7575"/>
<path d="M61.4773 67.4141C39.0996 67.4141 20.9588 80.7387 20.9588 97.1755C20.921 97.6576 20.8974 98.1357 20.8877 98.6097C20.8481 100.544 21.0401 102.41 21.4431 104.197C21.8321 105.922 22.4177 107.573 23.1815 109.143C27.363 117.736 36.8842 123.867 48.7133 126.087C48.8397 126.111 48.9664 126.134 49.0933 126.157C53.0101 126.861 57.1744 127.139 61.4773 126.937C65.2924 126.937 69.0053 126.62 72.5365 126.003C84.8656 123.849 94.9795 118.041 99.4958 109.313C99.6694 108.977 99.8349 108.637 99.9918 108.293C101.506 104.973 102.231 101.254 101.996 97.1755C101.996 80.7387 83.8551 67.4141 61.4773 67.4141Z" fill="#FFCFCF"/>
<path d="M74.3866 126.22C89.525 125.686 99.5919 124.816 105.94 123.533V111.051C104.021 110.398 101.856 109.812 99.4958 109.313C94.9795 118.041 84.8656 123.849 72.5365 126.003C73.0831 126.085 73.698 126.157 74.3866 126.22Z" fill="#FFCFCF"/>
<path d="M15.8777 123.538C22.2258 124.822 32.2927 125.691 47.4311 126.226C47.8908 126.184 48.3176 126.137 48.7133 126.087C36.8842 123.867 27.363 117.736 23.1815 109.143C20.4856 109.677 18.0273 110.326 15.8777 111.056V123.538Z" fill="#FFCFCF"/>
<path fill-rule="evenodd" clip-rule="evenodd" d="M20.8877 98.6097C20.5529 100.164 18.7363 103.415 14.1465 102.554C20.9594 93.2312 4.10656 91.0797 8.40916 102.195C7.5725 102.195 5.75592 101.335 3.74792 97.8926C2.31366 98.9683 3.74809 105.064 10.9192 103.988C13.4295 105.423 17.3738 106.857 21.4431 104.197C21.0401 102.41 20.8481 100.544 20.8877 98.6097ZM11.2781 101.478C9.12665 100.403 8.40951 97.8926 10.5609 97.534C12.3294 97.2393 13.0709 100.403 11.2781 101.478Z" fill="#FFA092"/>
<path d="M60.4004 111.875L62.5518 114.026M62.5518 111.875L60.4004 114.026" stroke="#FFA092" stroke-width="0.717142" stroke-linecap="round"/>
<path d="M72.2332 100.4C74.5962 103.65 79.7632 104.344 84.066 101.834L80.4803 90.4678C74.9249 93.4933 70.8544 94.8848 72.2332 100.4Z" fill="#FF7575"/>
<path d="M90.5203 82.8301C87.1724 86.5643 83.5932 88.7726 80.4803 90.4678M99.4941 96.4558C100.56 97.8901 93.7474 100.4 84.066 101.834M84.066 101.834C79.7632 104.344 74.5962 103.65 72.2332 100.4C70.8544 94.8848 74.9249 93.4933 80.4803 90.4678M84.066 101.834L80.4803 90.4678" stroke="#FF7575" stroke-width="0.717142"/>
<path d="M51.1985 102.195C48.8355 105.445 43.6685 106.139 39.3656 103.629L42.9513 92.2628C48.5068 95.2882 52.5773 96.6797 51.1985 102.195Z" fill="#FF7575"/>
<path d="M32.9113 84.625C36.2593 88.3592 39.8384 90.5675 42.9513 92.2628M23.9375 98.2507C22.8713 99.685 29.6842 102.195 39.3656 103.629M39.3656 103.629C43.6685 106.139 48.8355 105.445 51.1985 102.195C52.5773 96.6797 48.5068 95.2882 42.9513 92.2628M39.3656 103.629L42.9513 92.2628" stroke="#FF7575" stroke-width="0.717142"/>
<path d="M62.5515 87.4913C90.6722 87.4913 113.469 71.4376 113.469 51.6342C113.469 47.2825 112.368 43.1118 110.352 39.2528C109.673 33.154 107.629 27.4259 104.504 22.3301C103.969 21.4579 103.403 20.6042 102.806 19.7703C101.193 17.5164 99.3594 15.4075 97.3329 13.4693C96.4153 12.5918 95.4583 11.7492 94.4643 10.9441C96.9797 13.3792 100.167 19.8899 102.9 26.3822C104.842 30.9957 106.554 35.5998 107.632 38.7257C107.65 38.9346 107.666 39.1427 107.681 39.3498C111.889 96.9298 32.9408 83.3976 18.4462 69.5628C27.25 80.2805 43.705 87.4913 62.5515 87.4913Z" fill="#FFC2BF"/>
<path d="M127.118 26.8972C121.381 14.347 111.341 12.0763 105.604 12.1958C103.996 13 103.087 16.0121 102.806 19.7703C102.652 21.8303 102.687 24.1146 102.9 26.3822C103.434 32.0881 105.089 37.6889 107.681 39.3498C108.046 39.5836 108.429 39.7394 108.831 39.8063C122.313 38.6589 128.655 32.2763 127.118 26.8972Z" fill="#FF7575"/>
<path d="M0.385707 24.7458C6.12285 12.1956 16.1628 9.92483 21.9 10.0444C23.5015 10.8453 24.4096 13.8358 24.6941 17.5723C25.3015 25.548 23.0677 36.9223 18.6728 37.6549C17.6519 37.568 16.6718 37.4511 15.7331 37.3068C4.27525 35.5465 -1.03484 29.7175 0.385707 24.7458Z" fill="#FF7575"/>
<path d="M29.9215 12.1543C28.5181 11.6915 24.949 10.6216 21.9 10.0444C23.5015 10.8453 24.4096 13.8358 24.6941 17.5723C26.2727 15.6361 28.022 13.8239 29.9215 12.1543Z" fill="#FFCFCF"/>
<path d="M105.604 12.1958C102.181 11.9199 98.6635 12.9299 97.3329 13.4693C99.3594 15.4075 101.193 17.5164 102.806 19.7703C103.087 16.0121 103.996 13 105.604 12.1958Z" fill="#FFCFCF"/>
<path d="M15.6887 37.5891C13.0787 41.9025 11.6344 46.6496 11.6344 51.6342C11.6344 58.1654 14.1139 64.2887 18.4462 69.5628C32.9408 83.3976 111.889 96.9298 107.681 39.3498C105.089 37.6889 103.434 32.0881 102.9 26.3822C100.167 19.8899 96.9797 13.3792 94.4643 10.9441C86.0562 4.13309 75.0093 0 62.9101 0C50.11 0 38.4877 4.62578 29.9215 12.1543C28.022 13.8239 26.2727 15.6361 24.6941 17.5723C25.3015 25.548 23.0677 36.9223 18.6728 37.6549C17.6519 37.568 16.6718 37.4511 15.7331 37.3068C15.718 37.4008 15.7032 37.4949 15.6887 37.5891Z" fill="#FFCFCF"/>
<path d="M44.2561 49.4784C44.8554 49.4784 45.3486 48.9905 45.2701 48.3963C45.1823 47.7325 45.0139 47.0815 44.768 46.4596C44.3896 45.5025 43.835 44.6329 43.1357 43.9003C42.4365 43.1678 41.6064 42.5868 40.6928 42.1903C39.7793 41.7939 38.8001 41.5898 37.8112 41.5898C36.8224 41.5898 35.8432 41.7939 34.9296 42.1903C34.0161 42.5868 33.186 43.1678 32.4867 43.9004C31.7875 44.6329 31.2329 45.5025 30.8544 46.4596C30.6085 47.0815 30.4402 47.7325 30.3524 48.3963C30.2739 48.9905 30.7671 49.4784 31.3664 49.4784C31.9658 49.4784 32.4414 48.9885 32.5515 48.3994C32.6198 48.0339 32.7229 47.6755 32.8596 47.3297C33.1289 46.6485 33.5237 46.0295 34.0214 45.5081C34.5191 44.9867 35.1099 44.5731 35.7602 44.2909C36.4105 44.0088 37.1074 43.8635 37.8112 43.8635C38.5151 43.8635 39.212 44.0088 39.8623 44.2909C40.5125 44.5731 41.1034 44.9867 41.6011 45.5081C42.0988 46.0295 42.4936 46.6485 42.7629 47.3297C42.8996 47.6755 43.0027 48.0339 43.071 48.3994C43.1811 48.9885 43.6567 49.4784 44.2561 49.4784Z" fill="black"/>
<path d="M98.0412 50.1972C98.6405 50.1972 99.1337 49.7092 99.0552 49.1151C98.9675 48.4512 98.7991 47.8003 98.5532 47.1783C98.1748 46.2212 97.6201 45.3516 96.9209 44.6191C96.2217 43.8866 95.3916 43.3055 94.478 42.9091C93.5644 42.5126 92.5852 42.3086 91.5964 42.3086C90.6075 42.3086 89.6284 42.5126 88.7148 42.9091C87.8012 43.3055 86.9711 43.8866 86.2719 44.6191C85.5727 45.3516 85.018 46.2212 84.6396 47.1783C84.3937 47.8003 84.2253 48.4512 84.1376 49.1151C84.059 49.7092 84.5523 50.1972 85.1516 50.1972C85.7509 50.1972 86.2265 49.7073 86.3367 49.1181C86.405 48.7526 86.508 48.3942 86.6447 48.0484C86.9141 47.3672 87.3089 46.7482 87.8066 46.2268C88.3042 45.7055 88.8951 45.2919 89.5454 45.0097C90.1956 44.7275 90.8926 44.5823 91.5964 44.5823C92.3002 44.5823 92.9972 44.7275 93.6474 45.0097C94.2977 45.2919 94.8885 45.7055 95.3862 46.2268C95.8839 46.7482 96.2787 47.3672 96.5481 48.0484C96.6848 48.3942 96.7878 48.7526 96.8561 49.1181C96.9663 49.7073 97.4419 50.1972 98.0412 50.1972Z" fill="black"/>
<ellipse cx="26.6981" cy="53.7794" rx="5.73714" ry="4.30285" fill="#FFA092"/>
<ellipse cx="99.1297" cy="55.9337" rx="5.73714" ry="4.30285" fill="#FFA092"/>
<ellipse cx="64.7003" cy="51.9881" rx="14.3428" ry="9.68142" fill="#FF7575"/>
<ellipse cx="58.9655" cy="51.9905" rx="1.43428" ry="2.51" fill="#603E1B"/>
<ellipse cx="70.4382" cy="51.9905" rx="1.43428" ry="2.51" fill="#603E1B"/>
</svg>
